<svg width="420" height="260" viewBox="0 0 420 260" fill="none" xmlns="http://www.w3.org/2000/svg">
<defs>
  <linearGradient id="sky" x1="0" y1="0" x2="1" y2="1">
    <stop offset="0%" stop-color="#FFF7D6"/>
    <stop offset="55%" stop-color="#F9C6E3"/>
    <stop offset="100%" stop-color="#BFE9FF"/>
  </linearGradient>
  <linearGradient id="fur" x1="0" y1="0" x2="1" y2="1">
    <stop offset="0%" stop-color="#FFF4D8"/>
    <stop offset="100%" stop-color="#E7C79A"/>
  </linearGradient>
</defs>
<rect width="420" height="260" rx="32" fill="url(#sky)"/>
<circle cx="84" cy="58" r="20" fill="#FFFDF6" opacity="0.85"/>
<circle cx="110" cy="56" r="28" fill="#FFFDF6" opacity="0.7"/>
<circle cx="338" cy="48" r="18" fill="#FFFDF6" opacity="0.85"/>
<circle cx="360" cy="52" r="26" fill="#FFFDF6" opacity="0.72"/>
<ellipse cx="210" cy="202" rx="118" ry="34" fill="#7C5C3A" opacity="0.18"/>
<ellipse cx="210" cy="188" rx="100" ry="42" fill="#FFF7EC" opacity="0.9"/>
<path d="M145 118C145 101 159 87 176 87H244C261 87 275 101 275 118V166C275 183 261 197 244 197H176C159 197 145 183 145 166V118Z" fill="url(#fur)" stroke="#C79D67" stroke-width="4"/>
<path d="M161 106L145 82L168 90" fill="url(#fur)" stroke="#C79D67" stroke-width="4" stroke-linejoin="round"/>
<path d="M259 106L275 82L252 90" fill="url(#fur)" stroke="#C79D67" stroke-width="4" stroke-linejoin="round"/>
<circle cx="181" cy="132" r="9" fill="#42312A"/>
<circle cx="239" cy="132" r="9" fill="#42312A"/>
<circle cx="181" cy="130" r="3" fill="#FFF7EF"/>
<circle cx="239" cy="130" r="3" fill="#FFF7EF"/>
<path d="M205 145L198 154H212L205 145Z" fill="#C06A6A"/>
<path d="M193 162C198 168 212 168 217 162" stroke="#C06A6A" stroke-width="4" stroke-linecap="round"/>
<path d="M148 145L120 138" stroke="#D2A572" stroke-width="4" stroke-linecap="round"/>
<path d="M148 152L116 154" stroke="#D2A572" stroke-width="4" stroke-linecap="round"/>
<path d="M148 160L120 168" stroke="#D2A572" stroke-width="4" stroke-linecap="round"/>
<path d="M272 145L300 138" stroke="#D2A572" stroke-width="4" stroke-linecap="round"/>
<path d="M272 152L304 154" stroke="#D2A572" stroke-width="4" stroke-linecap="round"/>
<path d="M272 160L300 168" stroke="#D2A572" stroke-width="4" stroke-linecap="round"/>
<path d="M173 190C173 172 181 164 193 164H217C229 164 237 172 237 190V214H173V190Z" fill="url(#fur)" stroke="#C79D67" stroke-width="4"/>
<path d="M170 210C170 224 161 235 149 235" stroke="#C79D67" stroke-width="8" stroke-linecap="round"/>
<path d="M250 210C250 224 259 235 271 235" stroke="#C79D67" stroke-width="8" stroke-linecap="round"/>
<circle cx="95" cy="100" r="4" fill="#FFF0A8"/>
<circle cx="314" cy="94" r="4" fill="#FFF0A8"/>
<circle cx="330" cy="138" r="3" fill="#FFF0A8"/>
<circle cx="102" cy="160" r="3" fill="#FFF0A8"/>
</svg>
